<svg xmlns="http://www.w3.org/2000/svg" width="16" height="16" viewBox="0 0 16 16" fill="none">
    <path d="M13.6295 4.59239C12.5185 4.96274 11.0371 3.48137 11.4074 2.37034M11.3176 2.4602L8.92397 4.85382C7.88337 5.89442 7.14514 7.19827 6.78822 8.62596L6.67256 9.08859C6.63652 9.23274 6.76709 9.36332 6.91125 9.32728L7.37388 9.21162C8.80157 8.8547 10.1054 8.11647 11.146 7.07587L13.5396 4.68225C13.8343 4.38759 13.9998 3.98794 13.9998 3.57123C13.9998 2.70346 13.2964 2 12.4286 2C12.0119 2 11.6122 2.16554 11.3176 2.4602Z" stroke="white" stroke-width="1.2"/>
    <path d="M8 2C7.31778 2 6.63556 2.07842 5.96696 2.23525C4.11534 2.66958 2.66958 4.11534 2.23525 5.96695C1.92158 7.30417 1.92158 8.69583 2.23525 10.033C2.66958 11.8847 4.11534 13.3304 5.96696 13.7648C7.30417 14.0784 8.69583 14.0784 10.033 13.7648C11.8847 13.3304 13.3304 11.8847 13.7648 10.033C13.9216 9.36443 14 8.68221 14 7.99998" stroke="white" stroke-width="1.2" stroke-linecap="round"/>
</svg>