<svg xmlns="http://www.w3.org/2000/svg" width="18" height="16" viewBox="0 0 18 16" fill="none">
    <path fill-rule="evenodd" clip-rule="evenodd" d="M0.937994 4.5797C4.55608 -1.52657 13.4439 -1.52657 17.062 4.5797C18.3127 6.69045 18.3127 9.30955 17.062 11.4203C13.4439 17.5266 4.55608 17.5266 0.937994 11.4203C-0.312665 9.30955 -0.312664 6.69045 0.937994 4.5797ZM6.36532 8.05483C6.36532 6.5934 7.54457 5.41018 8.99949 5.41018C10.4547 5.41018 11.6347 6.59366 11.6347 8.05483C11.6347 9.51483 10.4548 10.6984 8.99949 10.6984C7.54444 10.6984 6.36532 9.51509 6.36532 8.05483ZM8.99949 4.17147C6.86264 4.17147 5.13103 5.90954 5.13103 8.05483C5.13103 10.1992 6.86276 11.9371 8.99949 11.9371C11.136 11.9371 12.869 10.1995 12.869 8.05483C12.869 5.90928 11.1361 4.17147 8.99949 4.17147Z" fill="#0099B5"/>
</svg>